PathFileType	4	(X/Y/Z)	C:/Users/opensim2020/Desktop/walking_exp_matlab/subject06_walking17_straight_03.trc																																																																																																																																					
DataRate	CameraRate	NumFrames	NumMarkers	Units	OrigDataRate	OrigDataStartFrame	OrigNumFrames																																																																																																																																	
100	100	4	45	mm	100	3392	295																																																																																																																																	
Frame#	Time	LFHD			RFHD			LBHD			RBHD			C7			T10			CLAV			STRN			RBAK			LSHO			LUPA			LELB			LFRM			LWRA			LWRB			LFIN			RSHO			RUPA			RELB			RFRM			RWRA			RWRB			RFIN			LASI			RASI			LPSI			RPSI			LTHI			LKNE			LTIB			LANK			LHEE			LTOE			RTHI			RKNE			RTIB			RANK			RHEE			RTOE			*39			*40			*41			*42			*43			*44		
		X1	Y1	Z1	X2	Y2	Z2	X3	Y3	Z3	X4	Y4	Z4	X5	Y5	Z5	X6	Y6	Z6	X7	Y7	Z7	X8	Y8	Z8	X9	Y9	Z9	X10	Y10	Z10	X11	Y11	Z11	X12	Y12	Z12	X13	Y13	Z13	X14	Y14	Z14	X15	Y15	Z15	X16	Y16	Z16	X17	Y17	Z17	X18	Y18	Z18	X19	Y19	Z19	X20	Y20	Z20	X21	Y21	Z21	X22	Y22	Z22	X23	Y23	Z23	X24	Y24	Z24	X25	Y25	Z25	X26	Y26	Z26	X27	Y27	Z27	X28	Y28	Z28	X29	Y29	Z29	X30	Y30	Z30	X31	Y31	Z31	X32	Y32	Z32	X33	Y33	Z33	X34	Y34	Z34	X35	Y35	Z35	X36	Y36	Z36	X37	Y37	Z37	X38	Y38	Z38	X39	Y39	Z39	X40	Y40	Z40	X41	Y41	Z41	X42	Y42	Z42	X43	Y43	Z43	X44	Y44	Z44	X45	Y45	Z45
																																																																																																																																								
185	1.84	369.43573	1652.09412	-1053.74841	356.20941	1638.27148	-923.08093	240.16199	1592.87585	-1070.20374	227.8734	1583.69092	-941.74463	237.04541	1438.52051	-1007.24176	199.07381	1109.2439	-992.784	345.47452	1359.5011	-1003.29938	383.23083	1184.74536	-1002.31665	160.67934	1271.86621	-919.81512	290.77631	1385.07996	-1167.11133	255.89769	1184.30957	-1231.26807	229.73061	1074.84094	-1238.61328	229.53749	923.71631	-1258.86572	276.02386	802.65918	-1217.77808	212.86476	805.70111	-1251.97424	242.10277	719.56927	-1253.24609	303.5181	1395.80151	-843.09387	284.40149	1197.13013	-750.00793	307.71271	1077.82227	-733.96124	346.32404	964.03656	-717.62073	430.87253	839.85535	-753.25256	381.23462	831.53583	-709.46112	433.38034	765.67102	-708.65607	389.26819	954.80249	-1091.72803	368.18094	951.54358	-872.98224	227.53038	979.37103	-1081.078	219.6601	979.07764	-912.29907	366.37939	642.85504	-1165.44922	397.89767	484.98856	-1138.56738	418.46051	230.03293	-1131.8468	455.59796	62.67205	-1089.68481	419.15012	47.45673	-1041.43469	602.38385	41.67525	-1086.29395	265.03143	620.33221	-834.23462	243.64455	494.77924	-853.91101	89.37447	270.17377	-862.04688	1.5377	105.57381	-911.51361	-42.70206	96.08054	-957.15417	136.24242	30.06684	-915.61823	262.0972	1685.20581	-1005.5531	NaN	NaN	NaN	NaN	NaN	NaN	NaN	NaN	NaN	NaN	NaN	NaN	NaN	NaN	NaN
186	1.85	376.90283	1653.14038	-1055.25476	363.33237	1639.31409	-924.6283	247.77306	1593.71582	-1072.04651	235.12671	1584.54236	-943.69965	244.5359	1439.32544	-1009.00299	207.0531	1110.21069	-994.39484	353.24011	1360.50146	-1004.79169	391.16724	1185.81348	-1003.75476	168.44646	1272.61438	-921.71417	298.96274	1385.97949	-1168.67419	265.1853	1184.97754	-1232.93921	239.36697	1075.37756	-1240.42188	239.5652	924.3158	-1260.4519	285.41547	803.22974	-1218.79431	222.96399	806.27991	-1253.77124	252.06023	720.08881	-1254.51697	310.73865	1396.9104	-844.67029	290.87186	1198.15308	-751.99756	314.17517	1078.78271	-735.92737	351.90829	964.72614	-719.28467	435.66156	839.97064	-754.44464	385.98941	832.07709	-710.57404	437.58658	765.84552	-709.58441	397.46143	956.29401	-1093.37756	376.43079	952.47479	-874.69196	235.67714	980.70715	-1082.67383	227.91954	979.7868	-914.09137	373.73917	643.9762	-1166.60278	404.52173	485.70187	-1139.77063	422.81378	230.12794	-1132.83716	456.68515	62.69878	-1089.52905	419.55905	47.9136	-1041.34363	603.24103	40.8649	-1085.88159	274.42554	620.8515	-835.04327	253.81067	495.14459	-854.27643	95.85429	273.11844	-862.22058	4.72919	110.07347	-911.25958	-39.58303	102.12336	-956.80408	136.52435	30.06405	-915.76971	269.38416	1686.10059	-1007.42249	NaN	NaN	NaN	NaN	NaN	NaN	NaN	NaN	NaN	NaN	NaN	NaN	NaN	NaN	NaN
187	1.86	384.37946	1654.38867	-1056.82458	370.52545	1640.60425	-926.26117	255.45729	1594.78259	-1074.00024	242.49681	1585.79724	-945.60803	252.16153	1440.32947	-1010.8183	215.05283	1111.38306	-996.03345	360.97592	1361.7135	-1006.26465	399.08975	1187.09375	-1005.18359	176.14664	1273.65894	-923.50427	307.07416	1387.11743	-1170.27734	274.42508	1185.86755	-1234.5896	249.05673	1076.22925	-1242.20276	249.83737	925.15759	-1262.15601	295.67944	804.27917	-1219.70618	233.68625	807.05597	-1255.50525	262.7753	720.89734	-1255.57837	317.99524	1398.25049	-846.23932	297.38171	1199.4375	-753.8465	320.53052	1079.97974	-737.91815	357.52823	965.66345	-721.0351	440.48343	840.31671	-755.68744	390.20551	832.61182	-712.28937	441.39798	766.14453	-710.55908	405.59677	957.79211	-1095.26123	384.66107	953.52057	-876.50061	243.92247	982.1004	-1084.36096	236.1541	980.67163	-915.93304	381.15488	645.08459	-1167.62585	411.10333	486.52658	-1140.75708	426.88446	230.67329	-1133.45862	457.69327	62.84847	-1089.38025	419.95419	48.20972	-1041.56836	603.94019	40.21092	-1084.42493	284.21228	621.36401	-835.70807	264.6366	495.56439	-854.53833	102.89819	276.35056	-862.29272	8.40085	115.33099	-910.64465	-35.76262	108.5872	-956.44122	136.85759	30.09992	-915.95142	276.75198	1687.23047	-1009.32788	NaN	NaN	NaN	NaN	NaN	NaN	NaN	NaN	NaN	NaN	NaN	NaN	NaN	NaN	NaN
188	1.87	391.98325	1655.64001	-1058.44788	377.74652	1642.01465	-927.89795	263.03418	1596.0105	-1075.87195	249.69499	1587.05237	-947.52332	259.69556	1441.50439	-1012.56512	223.01181	1112.66638	-997.82098	368.65268	1363.04871	-1007.77411	407.05499	1188.47351	-1006.62714	183.87073	1274.90442	-925.19049	315.07098	1388.4458	-1171.79736	284.06204	1187.0907	-1236.39319	258.99054	1077.28625	-1243.98987	260.6944	926.17487	-1263.68652	306.07501	805.46667	-1220.79736	244.52536	808.2041	-1257.65051	273.76184	721.96661	-1257.02332	325.24615	1399.7627	-847.85693	303.97528	1200.99866	-755.60889	326.78598	1081.3739	-739.8786	362.89285	966.79553	-722.78668	444.85153	840.586	-756.92432	394.36316	833.59705	-713.5777	445.13324	766.55408	-711.75696	413.67621	959.30469	-1097.26367	392.84131	954.72144	-878.41364	252.19984	983.53595	-1086.15063	244.48911	981.72284	-917.88269	388.51691	646.17773	-1168.57544	417.52847	487.35242	-1141.55432	430.53201	231.42822	-1133.74951	458.41943	63.03915	-1089.21948	420.10236	48.48117	-1041.76331	604.50128	39.8371	-1083.23438	294.25754	622.0423	-836.44342	275.92877	496.00351	-854.54102	110.47459	279.81677	-862.198	12.57524	120.65372	-910.24017	-31.24187	115.51512	-956.06085	137.18141	30.14928	-916.03235	284.16037	1688.55017	-1011.23383	NaN	NaN	NaN	NaN	NaN	NaN	NaN	NaN	NaN	NaN	NaN	NaN	NaN	NaN	NaN
